<?xml version="1.0" encoding="iso-8859-1"?>
<!-- Generator: Adobe Illustrator 19.0.0, SVG Export Plug-In . SVG Version: 6.00 Build 0)  -->
<svg version="1.1" id="Capa_1" xmlns="http://www.w3.org/2000/svg" xmlns:xlink="http://www.w3.org/1999/xlink" x="0px" y="0px"
	 viewBox="0 0 512.001 512.001" style="enable-background:new 0 0 512.001 512.001;" xml:space="preserve">
<path id="SVGCleanerId_0" style="fill:#80D3AE;" d="M167.343,104.446c-26.724-26.724-16.755-51.096-36.706-76.818
	c-2.745-3.539-0.948-8.744,3.393-9.848c47.06-11.975,79.738-1.069,100.393,19.586c19.553,19.553,20.388,50.421,1.864,68.945
	C217.764,124.835,186.896,124,167.343,104.446z"/>
<g>
	<path id="SVGCleanerId_0_1_" style="fill:#80D3AE;" d="M167.343,104.446c-26.724-26.724-16.755-51.096-36.706-76.818
		c-2.745-3.539-0.948-8.744,3.393-9.848c47.06-11.975,79.738-1.069,100.393,19.586c19.553,19.553,20.388,50.421,1.864,68.945
		C217.764,124.835,186.896,124,167.343,104.446z"/>
</g>
<path style="fill:#60C28E;" d="M219.998,93.125c-2.324,0-4.615-1.077-6.082-3.104c-14.74-20.367-40.873-40.628-48.867-43.426
	c-3.909-1.368-5.97-5.646-4.602-9.556c1.368-3.909,5.643-5.971,9.557-4.602c12.51,4.377,40.838,27.751,56.064,48.79
	c2.428,3.355,1.677,8.044-1.679,10.473C223.06,92.662,221.522,93.125,219.998,93.125z"/>
<path style="fill:#A67E74;" d="M256,141.813c-12.415,0-22.478-10.064-22.478-22.478c0-27.465,20.373-91.473,59.318-115.897
	c10.518-6.597,24.391-3.416,30.986,7.101c6.596,10.517,3.417,24.391-7.101,30.986c-20.929,13.125-38.246,59.621-38.246,77.809
	C278.478,131.749,268.415,141.813,256,141.813z"/>
<path style="fill:#946450;" d="M278.478,119.335c0-8.89,4.144-24.543,10.818-39.756c-5.508,0.758-10.57,1.893-15.419,3.412
	c-11.061,3.466-22.8,3.64-33.932,0.534c-4.253,14.055-6.425,26.872-6.425,35.81c0,12.414,10.063,22.478,22.479,22.478
	C268.415,141.813,278.478,131.749,278.478,119.335z"/>
<path style="fill:#F5E6AB;" d="M369.629,152.233H142.371l31.045,85.963c15.855,43.902,17.951,91.594,6.008,136.718L157.17,459
	h197.66l-22.255-84.087c-11.943-45.124-9.847-92.816,6.009-136.718L369.629,152.233z"/>
<path style="fill:#F2C55A;" d="M142.371,152.233l31.045,85.963c15.855,43.902,17.951,91.594,6.008,136.718L157.17,459h122.825
	c-87.682-43.358-74.063-179.993-65.596-248.81c1.335-10.848,12.056-17.895,22.566-14.896c4.355,1.243,8.446,2.771,12.164,4.608
	c4.355,2.15,9.464,2.104,13.822-0.04c24.263-11.934,64.278-10.825,90.435-2.652l16.244-44.978L142.371,152.233L142.371,152.233z"/>
<g>
	<path style="fill:#A67E74;" d="M281.877,329.775L281.877,329.775c-8.358,0-14.865-7.255-13.96-15.564l2.444-22.423
		c0.64-5.877,5.604-10.329,11.516-10.329l0,0c5.912,0,10.876,4.452,11.516,10.329l2.444,22.423
		C296.743,322.519,290.235,329.775,281.877,329.775z"/>
	<path style="fill:#A67E74;" d="M230.123,329.775L230.123,329.775c-8.358,0-14.865-7.255-13.96-15.564l2.444-22.423
		c0.641-5.877,5.604-10.329,11.516-10.329l0,0c5.912,0,10.876,4.452,11.516,10.329l2.444,22.423
		C244.988,322.519,238.48,329.775,230.123,329.775z"/>
</g>
<path style="fill:#EA7786;" d="M238.122,104.853c11.667,3.656,24.09,3.656,35.757,0c14.852-4.654,31.616-5.766,57.52-3.16
	c29.927,3.011,66.776,19.373,97.782,38.439c7.6,4.673,4.722,16.318-4.176,16.969c-18.563,1.357-39.082,5.616-51.938,12.001
	c-6.435,3.196-13.896,3.719-20.778,1.651c-24.744-7.436-61.18-8.66-85.301,1.18c-7.066,2.882-14.908,2.882-21.974,0
	c-24.121-9.84-60.557-8.617-85.301-1.18c-6.881,2.068-14.342,1.545-20.778-1.651c-12.856-6.385-33.375-10.644-51.938-12.001
	c-8.898-0.65-11.776-12.295-4.176-16.969c31.006-19.066,67.855-35.428,97.782-38.439C206.506,99.086,223.27,100.199,238.122,104.853
	z"/>
<path style="fill:#E35968;" d="M274.718,169.272c-24.743-11.882-35.959-41.278-24.229-61.944c-4.171-0.388-8.315-1.206-12.368-2.476
	c-14.852-4.654-31.616-5.766-57.52-3.16c-29.927,3.011-66.776,19.373-97.782,38.439c-7.6,4.673-4.722,16.318,4.176,16.969
	c18.563,1.357,39.082,5.616,51.938,12.001c6.435,3.196,13.896,3.719,20.778,1.651c24.744-7.437,61.18-8.66,85.301,1.18
	c7.066,2.882,14.908,2.882,21.974,0C269.443,170.931,272.032,170.05,274.718,169.272z"/>
<path style="fill:#EA7786;" d="M246.075,508.746c6.36-2.531,13.489-2.531,19.85,0c11.918,4.742,24.893,3.669,46.133,0.795
	c22.907-3.1,51.268-20.35,74.728-40.133c5.839-4.924,2.844-14.519-4.759-15.239c-13.051-1.236-27.466-5.084-37.161-10.882
	c-6.056-3.622-13.409-4.11-20.06-1.752c-16.975,6.019-40.048,7-56.909-0.401c-7.617-3.344-16.178-3.344-23.795,0
	c-16.861,7.401-39.934,6.42-56.909,0.401c-6.65-2.358-14.004-1.87-20.06,1.752c-9.695,5.799-24.11,9.646-37.161,10.882
	c-7.604,0.72-10.598,10.315-4.76,15.239c23.46,19.783,51.822,37.033,74.728,40.133C221.182,512.414,234.157,513.488,246.075,508.746
	z"/>
<path style="fill:#E35968;" d="M268.61,441.417c-0.235-0.099-0.48-0.182-0.712-0.284c-7.617-3.344-16.178-3.344-23.795,0
	c-16.861,7.401-39.934,6.42-56.908,0.401c-6.65-2.358-14.004-1.87-20.06,1.752c-9.695,5.799-24.11,9.647-37.161,10.883
	c-7.604,0.72-10.598,10.315-4.759,15.239c23.46,19.783,51.821,37.034,74.728,40.133c21.24,2.874,34.215,3.947,46.133-0.795
	c6.36-2.531,13.489-2.531,19.85,0c11.918,4.742,24.893,3.669,46.133,0.795c8.589-1.162,17.944-4.314,27.521-8.843
	C289.989,494.882,268.159,462.098,268.61,441.417z"/>
<g>
</g>
<g>
</g>
<g>
</g>
<g>
</g>
<g>
</g>
<g>
</g>
<g>
</g>
<g>
</g>
<g>
</g>
<g>
</g>
<g>
</g>
<g>
</g>
<g>
</g>
<g>
</g>
<g>
</g>
</svg>
