<svg height="512" viewBox="0 0 64 64" width="512" xmlns="http://www.w3.org/2000/svg"><g id="Fill_Outline" data-name="Fill Outline"><g id="Color"><g><g><path d="m23.069 2.675a6 6 0 0 1 6 6v26a0 0 0 0 1 0 0h-10a0 0 0 0 1 0 0v-28a4 4 0 0 1 4-4z" fill="#fcbc04" transform="matrix(.985 -.174 .174 .985 -2.877 4.463)"/><path d="m31.1 29.731-1.232-6.986-9.668-16.745c-.012-.021-.027-.04-.04-.062l-.471-2.672a4.008 4.008 0 0 0 -1.316.776h-.005a3.985 3.985 0 0 0 -1.3 3.686l3.261 18.492 1.6 9.083 9.848-1.737z" fill="#e59730"/><path d="m15.867 1.161a6 6 0 0 1 6 6v26a0 0 0 0 1 0 0h-10a0 0 0 0 1 0 0v-28a4 4 0 0 1 4-4z" fill="#fcbc04" transform="matrix(.866 -.5 .5 .866 -6.321 10.733)"/><circle cx="34" cy="19" fill="#f89c8d" r="5"/><path d="m37 10h3a0 0 0 0 1 0 0 4 4 0 0 1 -4 4h-2a0 0 0 0 1 0 0v-1a3 3 0 0 1 3-3z" fill="#c4f236"/><path d="m44.119 27.673-3.759-1.368.7-1.932a37.876 37.876 0 0 0 2.04-17.29l11.277 4.1a37.872 37.872 0 0 0 -9.554 14.554z" fill="#a1d51c"/><path d="m43.1 7.082a37.69 37.69 0 0 1 .2 5.882 1.927 1.927 0 0 0 1.865 1.359 2.983 2.983 0 0 0 1.8 1.852l-.018.03a4.229 4.229 0 0 1 -4.23 2.032 37.9 37.9 0 0 1 -1.659 6.135l-.7 1.932 3.759 1.368.7-1.932a37.872 37.872 0 0 1 9.554-14.554z" fill="#7ab92d"/><path d="m56.3 11.617a1.994 1.994 0 1 0 -.729-3.917 3.987 3.987 0 0 0 -6.771-3.5 2.977 2.977 0 0 0 -5.013 1 3 3 0 1 0 .424 5.431 1.961 1.961 0 0 0 1.96 1.689 2.982 2.982 0 0 0 4.61 1.443 2.994 2.994 0 1 0 5.519-2.146z" fill="#c4f236"/><path d="m54.666 12.885a2.992 2.992 0 0 1 -1.889-2.119 2.982 2.982 0 0 1 -4.61-1.443 1.961 1.961 0 0 1 -1.96-1.689 2.983 2.983 0 0 1 -4.442-2.428 2.988 2.988 0 1 0 2.442 5.428 1.961 1.961 0 0 0 1.96 1.689 2.982 2.982 0 0 0 4.61 1.443 3 3 0 0 0 5.734.326 2.933 2.933 0 0 0 .164-1.206 2.974 2.974 0 0 1 -2.009-.001z" fill="#a1d51c"/><path d="m36 22a5 5 0 0 1 -5-5 4.95 4.95 0 0 1 .625-2.375 4.984 4.984 0 1 0 6.75 6.75 4.95 4.95 0 0 1 -2.375.625z" fill="#f8664f"/><path d="m36 12h-1.816a2.962 2.962 0 0 0 -.184 1v1h2a4 4 0 0 0 4-4h-.555a3.982 3.982 0 0 1 -3.445 2z" fill="#a1d51c"/><path d="m17.537 21.589-10-17.32c-.019-.032-.027-.066-.045-.1a3.99 3.99 0 0 0 -.955 5.1l14 24.249 8.66-5-1.978-3.426a7.994 7.994 0 0 1 -9.682-3.503z" fill="#e59730"/></g><g><path d="m39 23-6-4-6 4-6-4-6 4-6-4v42h36v-42z" fill="#f9e109"/><path d="m53 61-4-2-4 2v-42l4 2 4-2z" fill="#e59730"/><g fill="#fcbc04"><path d="m49 21v38l4 2v-42z"/><path d="m36 56a22 22 0 0 1 -22-22v-11.667l-5-3.333v42h36v-5z"/></g></g></g></g><g id="Outlines_copy" data-name="Outlines copy"><g fill="#323232"><path d="m53 41a1 1 0 0 0 -1 1v17.382l-2-1v-18.382a1 1 0 0 0 -2 0v18.382l-2 1v-7.382a1 1 0 0 0 -2 0v8h-34v-24a1 1 0 0 0 -2 0v25a1 1 0 0 0 1 1h36a1.008 1.008 0 0 0 .351-.071c.019-.007.038-.012.056-.02s.027-.008.039-.014l3.554-1.777 3.553 1.782a1 1 0 0 0 1.447-.9v-19a1 1 0 0 0 -1-1z"/><path d="m21.187 47.94a1 1 0 0 0 .278 1.387 9.917 9.917 0 0 0 12.5-1.2l.067 1.039a1 1 0 0 0 1 .935h.066a1 1 0 0 0 .933-1.062l-.232-3.6a1 1 0 0 0 -1.069-.939l-3.6.232a1 1 0 1 0 .129 2l1.359-.088a7.924 7.924 0 0 1 -10.046 1.02 1 1 0 0 0 -1.385.276z"/><path d="m30.832 29.445a1 1 0 0 0 -1.387-.277l-3 2a1 1 0 0 0 -.277 1.387l2 3a1 1 0 1 0 1.664-1.11l-.773-1.159a8 8 0 0 1 5.941 7.714c0 .123-.009.244-.018.365l-.008.134a1 1 0 0 0 .935 1.06h.064a1 1 0 0 0 1-.937l.008-.122c.011-.166.022-.333.022-.5a10 10 0 0 0 -7.288-9.606l.843-.562a1 1 0 0 0 .274-1.387z"/><path d="m15.077 43.458a1 1 0 0 0 .453 1.34l3.232 1.6a1 1 0 0 0 1.34-.453l1.6-3.232a1 1 0 0 0 -1.793-.886l-.619 1.251a7.92 7.92 0 0 1 4.158-9.234 1 1 0 0 0 -.892-1.79 9.944 9.944 0 0 0 -5.556 8.946 9.651 9.651 0 0 0 .333 2.458l-.916-.453a1 1 0 0 0 -1.34.453z"/><path d="m58.221 9.394a1 1 0 0 0 -1.282.6.984.984 0 0 1 -.789.638 1 1 0 0 0 -.72 1.473 1.967 1.967 0 0 1 .141 1.648 2 2 0 0 1 -3.822-.219 1 1 0 0 0 -1.567-.57 1.98 1.98 0 0 1 -3.069-.964 1 1 0 0 0 -.944-.676 1 1 0 0 1 -.336-.053.987.987 0 0 1 -.639-.79 1 1 0 0 0 -1.472-.72 1.992 1.992 0 0 1 -2.844-2.422 2 2 0 0 1 2.563-1.2 1 1 0 0 0 1.283-.6 1.978 1.978 0 0 1 3.338-.665 1 1 0 0 0 .718.322 1.017 1.017 0 0 0 .729-.3 2.987 2.987 0 0 1 5.078 2.621 1 1 0 1 0 1.969.352 4.985 4.985 0 0 0 -7.756-4.969 3.816 3.816 0 0 0 -.832-.424 4 4 0 0 0 -4.725 1.58 4 4 0 0 0 -4.362 4.944h-1.881a3.959 3.959 0 0 0 -2 .556v-.556a1 1 0 0 0 -2 0v4.09a6 6 0 0 0 -3.482 1.934l-1.276-7.239a7 7 0 0 0 -8.11-5.678 4.981 4.981 0 0 0 -3.566 2.659 7.008 7.008 0 0 0 -9.066-1.828 5.008 5.008 0 0 0 -1.83 6.831l3.925 6.8a1 1 0 0 0 1.733-1l-3.928-6.8a3 3 0 0 1 1.1-4.1 5.006 5.006 0 0 1 6.831 1.831l.5.866-2.6 1.5a1 1 0 1 0 1 1.732l2.6-1.5 1 1.732-2.6 1.5a1 1 0 1 0 1 1.732l2.6-1.5 1 1.732-2.6 1.5a1 1 0 1 0 1 1.732l2.6-1.5 1.556 2.7-.832-.555a1 1 0 0 0 -1.11 0l-5.445 3.629-5.445-3.63a1 1 0 0 0 -1.555.83v13a1 1 0 0 0 2 0v-11.131l4.445 2.963a1 1 0 0 0 1.11 0l5.445-3.632 5.445 3.63a1 1 0 0 0 1.11 0l5.445-3.63 5.445 3.63a1 1 0 0 0 1.11 0l4.445-2.961v27.131a1 1 0 0 0 2 0v-27.382l2 1v7.382a1 1 0 0 0 2 0v-7.382l2-1v17.382a1 1 0 0 0 2 0v-19a1 1 0 0 0 -1.447-.895l-3.553 1.777-.216-.108a36.831 36.831 0 0 1 2.43-3.575 3.986 3.986 0 0 0 6.371-4.01 2.984 2.984 0 0 0 1.233-1.513 1 1 0 0 0 -.597-1.282zm-21.221 1.606h1.829a3.006 3.006 0 0 1 -2.829 2h-1a2 2 0 0 1 2-2zm-10 10.8-.858-.571-8.079-13.996-.029-.05a2.99 2.99 0 0 1 2.446-3.106 5 5 0 0 1 5.792 4.056l.174.984-2.955.522a1 1 0 0 0 .173 1.985.95.95 0 0 0 .175-.016l2.954-.521.347 1.97-2.954.521a1 1 0 0 0 .172 1.985.95.95 0 0 0 .175-.016l2.955-.52.566 3.211a5.981 5.981 0 0 0 -.054.762 5.786 5.786 0 0 0 .335 1.908zm5.445-3.63-2.362 1.575a3.677 3.677 0 0 1 -.083-.745 4 4 0 0 1 8 0 3.861 3.861 0 0 1 -.467 1.82l-3.978-2.652a1 1 0 0 0 -1.11 0zm6.955 3.36a5.829 5.829 0 0 0 .6-2.53 5.978 5.978 0 0 0 -1.975-4.437 5.006 5.006 0 0 0 2.727-3.087 3.98 3.98 0 0 0 .638.3 3.914 3.914 0 0 0 .922.205 36.987 36.987 0 0 1 -1.068 8.319zm6.044-3.425a1 1 0 0 0 -1 .059l-.8.531a39 39 0 0 0 .648-6.033 2.973 2.973 0 0 0 .85.483 2.87 2.87 0 0 0 .335.1 4.021 4.021 0 0 0 .452.666l-.529 1.459a1 1 0 1 0 1.879.684l.342-.939a3.984 3.984 0 0 0 1.732.211 39.246 39.246 0 0 0 -2.366 3.551z"/></g></g></g></svg>