<?xml version="1.0" encoding="iso-8859-1"?>
<!-- Generator: Adobe Illustrator 19.0.0, SVG Export Plug-In . SVG Version: 6.00 Build 0)  -->
<svg xmlns="http://www.w3.org/2000/svg" xmlns:xlink="http://www.w3.org/1999/xlink" version="1.1" id="Layer_1" x="0px" y="0px" viewBox="0 0 512 512" style="enable-background:new 0 0 512 512;" xml:space="preserve" width="512" height="512">
<g>
	<path style="fill:#61D7A8;" d="M346,0c-38.401,0-71.7,22-90,52.899C237.7,22,204.401,0,166,0h-15v15c0,101.1,102.001,104.5,105,106   c2.999-1.5,105-4.9,105-106V0H346z"/>
	<path style="fill:#00AB94;" d="M256,121V52.899C274.3,22,307.599,0,346,0h15v15C361,116.1,258.999,119.5,256,121z"/>
	<path style="fill:#537983;" d="M331,136c0,24.899-20.099,45-45,45h-60c-24.901,0-45-20.101-45-45c0-24.901,20.099-45,45-45h60   C310.901,91,331,111.099,331,136z"/>
	<path style="fill:#3E5959;" d="M331,136c0,24.899-20.099,45-45,45h-30V91h30C310.901,91,331,111.099,331,136z"/>
	<path style="fill:#61D7A8;" d="M481,467c0,24.899-20.099,45-45,45H76c-24.901,0-45-20.101-45-45c0-19.501,12.599-37,30-43.301V346   c0-107.701,87.299-195,195-195s195,87.299,195,195v77.699C468.401,430,481,447.499,481,467z"/>
	<path style="fill:#00AB94;" d="M481,467c0,24.899-20.099,45-45,45H256V151c107.701,0,195,87.299,195,195v77.699   C468.401,430,481,447.499,481,467z"/>
	<path style="fill:#FFF5F5;" d="M293.5,255.099l-24.901,16.8c-2.999-4.499-7.8-6.599-12.599-6.599s-9.6,2.1-12.599,6.599l-44.7,67.2   l-25.201-16.5l45-67.5c8.401-12.599,23.101-18.9,37.5-18.9S285.099,242.5,293.5,255.099z"/>
	<path style="fill:#FFF5F5;" d="M271,421h-78.94c-16.641,0-31.846-9.111-39.683-23.774c-7.852-14.663-6.987-32.358,2.241-46.187   l24.961,16.641c-4.497,6.753-2.021,13.008-0.747,15.396S183.944,391,192.06,391H271V421z"/>
	<path style="fill:#EFE2DD;" d="M319.94,421v-30c8.115,0,11.953-5.537,13.228-7.925s3.75-8.643-0.747-15.396l-45.63-68.452   l24.961-16.641l45.63,68.452c9.229,13.828,10.093,31.523,2.241,46.187C351.786,411.889,336.581,421,319.94,421z"/>
	<polygon style="fill:#FFF5F5;" points="292.301,406 256,443 251.499,447.499 230.501,425.499 249.699,406 230.501,386.499    251.499,365.499 256,370  "/>
	<polygon style="fill:#EFE2DD;" points="298.744,336.024 270.473,325.976 288.974,273.959 345.019,285.297 339.071,314.711    308.515,308.529  "/>
	<polygon style="fill:#FFF5F5;" points="173.603,347.099 164.682,288.256 194.33,283.744 199.062,314.901 229.032,312.44    231.493,342.353  "/>
	<polygon style="fill:#EFE2DD;" points="256,370 292.301,406 256,443  "/>
	<path style="fill:#EFE2DD;" d="M293.5,255.099l-24.901,16.8c-2.999-4.499-7.8-6.599-12.599-6.599v-29.101   C270.399,236.199,285.099,242.5,293.5,255.099z"/>
</g>















</svg>
