<?xml version="1.0" encoding="iso-8859-1"?>
<!-- Generator: Adobe Illustrator 19.0.0, SVG Export Plug-In . SVG Version: 6.00 Build 0)  -->
<svg version="1.1" id="Capa_1" xmlns="http://www.w3.org/2000/svg" xmlns:xlink="http://www.w3.org/1999/xlink" x="0px" y="0px"
	 viewBox="0 0 512 512" style="enable-background:new 0 0 512 512;" xml:space="preserve">
<path style="fill:#34A8C0;" d="M512,256c0,43.133-10.668,83.769-29.508,119.421c-13.27,25.13-30.605,47.783-51.137,67.093
	c-35.558,33.437-80.687,56.832-130.842,65.62C286.062,510.683,271.182,512,256,512c-15.182,0-30.062-1.317-44.513-3.866
	c-50.155-8.788-95.284-32.183-130.842-65.62C31.002,395.818,0,329.529,0,256C0,114.615,114.615,0,256,0
	c139.557,0,253.033,111.668,255.937,250.525C511.979,252.343,512,254.171,512,256z"/>
<path style="fill:#B5423C;" d="M431.355,442.514c-25.004,23.521-54.753,42.068-87.646,54.053
	c-13.876,5.068-28.317,8.955-43.196,11.567C286.062,510.683,271.182,512,256,512c-15.182,0-30.062-1.317-44.513-3.866
	c-14.879-2.612-29.32-6.499-43.196-11.567c-2.466-0.899-4.921-1.839-7.346-2.811c-29.978-11.985-57.166-29.487-80.3-51.242
	c39.09-36.78,89.715-61.388,145.878-67.824c9.665-1.118,19.508-1.682,29.477-1.682C323.856,373.008,385.536,399.402,431.355,442.514
	z"/>
<path style="fill:#992D26;" d="M226.523,374.69c-45.255,18.944-60.468,80.927-65.578,119.066
	c-29.978-11.985-57.166-29.487-80.3-51.242C119.735,405.734,170.36,381.127,226.523,374.69z"/>
<path style="fill:#E0E2E2;" d="M349.748,339.749v66.205c0,41.367-19.226,78.252-49.236,102.181C286.062,510.683,271.182,512,256,512
	c-15.182,0-30.062-1.317-44.513-3.866c-30.009-23.928-49.236-60.813-49.236-102.181v-66.205L349.748,339.749L349.748,339.749z"/>
<rect x="233.681" y="97.573" style="fill:#FDBC69;" width="44.622" height="208.394"/>
<rect x="233.681" y="97.573" style="fill:#E89435;" width="22.312" height="208.394"/>
<path style="fill:#E0E2E2;" d="M255.997,440.797L255.997,440.797c-16.409,0-29.712-13.303-29.712-29.712V297.189h59.424v113.896
	C285.709,427.495,272.406,440.797,255.997,440.797z"/>
<path style="fill:#CCCCCC;" d="M245.478,411.085V297.189h-19.194v113.896c0,16.41,13.303,29.713,29.713,29.713l0,0
	c3.359,0,6.585-0.566,9.596-1.593C253.896,435.213,245.478,424.136,245.478,411.085z"/>
<path style="fill:#FDBC69;" d="M255.997,102.797c-47.075,0-85.372-38.298-85.372-85.372V0.001h170.745v17.424
	C341.369,64.499,303.071,102.797,255.997,102.797z M208.568,34.848c7.113,19.301,25.689,33.101,47.428,33.101
	s40.316-13.8,47.428-33.101C303.424,34.848,208.568,34.848,208.568,34.848z"/>
<path style="fill:#B5423C;" d="M343.709,496.567c-13.876,5.068-28.317,8.955-43.196,11.567C286.062,510.683,271.182,512,256,512
	c-15.182,0-30.062-1.317-44.513-3.866c-14.879-2.612-29.32-6.499-43.196-11.567c27.366-9.979,56.895-15.423,87.709-15.423
	S316.343,486.588,343.709,496.567z"/>
<g>
</g>
<g>
</g>
<g>
</g>
<g>
</g>
<g>
</g>
<g>
</g>
<g>
</g>
<g>
</g>
<g>
</g>
<g>
</g>
<g>
</g>
<g>
</g>
<g>
</g>
<g>
</g>
<g>
</g>
</svg>
